<?xml version="1.0" encoding="utf-8"?>
<!-- Generator: Adobe Illustrator 27.8.1, SVG Export Plug-In . SVG Version: 6.00 Build 0)  -->
<svg version="1.1" id="圖層_1" xmlns="http://www.w3.org/2000/svg" xmlns:xlink="http://www.w3.org/1999/xlink" x="0px" y="0px"
	 viewBox="0 0 16 16" style="enable-background:new 0 0 16 16;" xml:space="preserve">
<path d="M8,11.8c-2.1,0-3.8-1.7-3.8-3.8S5.9,4.2,8,4.2s3.8,1.7,3.8,3.8S10.1,11.8,8,11.8z M8,13.1c2.8,0,5.1-2.3,5.1-5.1
	S10.8,2.9,8,2.9S2.9,5.2,2.9,8S5.2,13.1,8,13.1z M8.6,1c0,0.4-0.3,0.6-0.6,0.6C7.6,1.6,7.4,1.4,7.4,1S7.6,0.4,8,0.4
	C8.4,0.4,8.6,0.7,8.6,1z M8.6,15c0,0.4-0.3,0.6-0.6,0.6c-0.4,0-0.6-0.3-0.6-0.6c0-0.4,0.3-0.6,0.6-0.6C8.4,14.4,8.6,14.6,8.6,15z
	 M15,8.6c-0.4,0-0.6-0.3-0.6-0.6c0-0.4,0.3-0.6,0.6-0.6s0.6,0.3,0.6,0.6C15.6,8.4,15.3,8.6,15,8.6z M1,8.6C0.7,8.6,0.4,8.4,0.4,8
	c0-0.4,0.3-0.6,0.6-0.6S1.6,7.6,1.6,8C1.6,8.4,1.4,8.6,1,8.6z M13.4,3.5c-0.2,0.3-0.6,0.3-0.9,0s-0.3-0.6,0-0.9c0,0,0,0,0,0
	c0.3-0.2,0.7-0.2,0.9,0C13.6,2.9,13.6,3.3,13.4,3.5z M3.5,13.4c-0.2,0.3-0.6,0.3-0.9,0c-0.3-0.2-0.3-0.6,0-0.9c0,0,0,0,0,0
	c0.3-0.2,0.7-0.2,0.9,0C3.7,12.8,3.7,13.1,3.5,13.4z M12.5,13.4c-0.3-0.2-0.3-0.6,0-0.9c0.2-0.3,0.6-0.3,0.9,0c0,0,0,0,0,0
	c0.2,0.3,0.2,0.7,0,0.9C13.1,13.6,12.7,13.6,12.5,13.4z M2.6,3.5c-0.3-0.2-0.3-0.6,0-0.9c0.2-0.3,0.6-0.3,0.9,0c0,0,0,0,0,0
	c0.2,0.3,0.2,0.7,0,0.9C3.2,3.7,2.9,3.7,2.6,3.5z"/>
</svg>
